<?xml version="1.0" encoding="utf-8"?>
<!-- Generator: Adobe Illustrator 20.1.0, SVG Export Plug-In . SVG Version: 6.00 Build 0)  -->
<svg version="1.1" id="Capa_1" xmlns="http://www.w3.org/2000/svg" xmlns:xlink="http://www.w3.org/1999/xlink" x="0px" y="0px"
	 viewBox="0 0 71 71" style="enable-background:new 0 0 71 71;" xml:space="preserve">
<style type="text/css">
	.st0{fill:#FFFFFF;}
</style>
<g>
	<path class="st0" d="M67.8,24.9H30.6c-0.8,0-1.4-0.6-1.4-1.4v0c0-0.8,0.6-1.4,1.4-1.4h37.2c0.8,0,1.4,0.6,1.4,1.4v0
		C69.2,24.2,68.6,24.9,67.8,24.9z"/>
	<path class="st0" d="M67.8,36.9H30.6c-0.8,0-1.4-0.6-1.4-1.4l0,0c0-0.8,0.6-1.4,1.4-1.4h37.2c0.8,0,1.4,0.6,1.4,1.4l0,0
		C69.2,36.3,68.6,36.9,67.8,36.9z"/>
	<path class="st0" d="M67.8,48.9H30.6c-0.8,0-1.4-0.6-1.4-1.4v0c0-0.8,0.6-1.4,1.4-1.4h37.2c0.8,0,1.4,0.6,1.4,1.4v0
		C69.2,48.3,68.6,48.9,67.8,48.9z"/>
</g>
</svg>
