<?xml version="1.0" encoding="utf-8"?>
<!-- Generator: Adobe Illustrator 20.1.0, SVG Export Plug-In . SVG Version: 6.00 Build 0)  -->
<svg version="1.1" id="Capa_1" xmlns="http://www.w3.org/2000/svg" xmlns:xlink="http://www.w3.org/1999/xlink" x="0px" y="0px"
	 viewBox="0 0 249 194" style="enable-background:new 0 0 249 194;" xml:space="preserve">
<style type="text/css">
	.st0{fill:#FFFFFF;}
	.st1{fill:#3377B4;}
	.st2{fill:#F9A44C;}
</style>
<g>
	<circle class="st0" cx="124.5" cy="90.8" r="27.6"/>
	<g>
		<path class="st1" d="M78.7,95.7c2.9,0,5.8,0,8.8,0c1.2,10,6.7,19.3,14.7,25.3c9.7,7.4,23.1,9.5,34.6,5.3
			c13.2-4.5,23-16.9,24.7-30.6c2.9,0,5.8,0,8.8,0c-1.2,11.8-7,23-16.1,30.6c-8.2,7-19,11-29.8,10.9c-12.1,0.1-24-4.9-32.5-13.5
			C84.4,116.2,79.8,106.1,78.7,95.7z"/>
		<path class="st2" d="M161.6,12.6c-0.4,0.5-0.8,0.9-1.2,1.4c-2,2.4-4.1,4.7-6.1,7.1c-1.6,1.9-3.2,3.8-4.8,5.6
			c-1.1,1.3-2.2,2.6-3.4,3.9c-0.1,0.1-0.2,0.2-0.4,0.3c-0.3,0.2-0.6,0.2-0.9-0.1c-0.2-0.2-0.3-0.5-0.1-0.8c0.2-0.3,0.4-0.5,0.6-0.8
			c1.5-2,3-4,4.4-6c1.6-2.2,3.2-4.4,4.9-6.6c1.3-1.8,2.6-3.6,4-5.4c0.2-0.2,0.3-0.5,0.5-0.7c-0.2-0.1-0.3-0.3-0.5-0.4
			c-0.1,0.1-0.1,0.1-0.2,0.2c-1.6,1.9-3.2,3.7-4.8,5.6c-1.5,1.8-3.1,3.6-4.6,5.4c-2,2.3-4,4.6-6,6.9c-0.1,0.1-0.2,0.2-0.2,0.2
			c-0.3,0.3-0.7,0.3-1,0.1c-0.3-0.3-0.3-0.6-0.1-1c0.4-0.5,0.7-1,1.1-1.5c1.7-2.3,3.5-4.6,5.2-6.8c1.2-1.6,2.4-3.1,3.6-4.7
			c1.5-2,3.1-4.1,4.6-6.1c0,0,0-0.1,0.1-0.1c-0.2-0.1-0.3-0.2-0.5-0.4c-2.5,2.8-10.8,12.1-12.2,13.7c-1.2,1.4-2.5,2.8-3.7,4.2
			c-0.1,0.1-0.1,0.1-0.2,0.2c-0.3,0.3-0.7,0.3-1,0.1c-0.3-0.2-0.3-0.6-0.1-1c0.4-0.5,0.7-1,1.1-1.5c1.6-2.1,3.2-4.1,4.7-6.2
			c1.4-1.9,2.9-3.7,4.3-5.6c1.5-2,3-3.9,4.5-5.9c-0.2-0.1-0.3-0.2-0.5-0.4c-0.3,0.4-0.6,0.7-1,1.1c-0.8,0.9-1.6,1.8-2.4,2.7
			c-1.4,1.6-2.9,3.2-4.3,4.8c-1.5,1.6-2.9,3.3-4.4,4.9c-2,2.3-4.1,4.6-6.1,6.8c-0.5,0.6-1.1,1.2-1.6,1.9c-0.4,0.4-0.4,1-0.3,1.5
			c0.2,1.1,0.4,2.1,0.6,3.2c0.2,0.8,0.4,1.5,0.5,2.3c0.1,0.4,0.1,0.8-0.3,1.2c-1,1.1-2,2.3-2.9,3.4c-1.2,1.4-2.4,2.8-3.6,4.2
			c-4.1,2.6-9.6,1.7-14.1,3.2c-18.3,4.5-32.6,21.2-34.3,40c2.9,0,5.8,0,8.8,0c1.6-13.2,10.7-25.2,23.1-30c4.7-1.7,9.4-3.6,13.7-6.2
			c2-1.2,3.9-2.5,5.7-4l0,0c0.1-0.1,0.1-0.2,0.2-0.3c2.8-2.4,5.2-5.3,6.8-8.6c0.2,0,0.4,0,0.6,0c1.2,0,2.3,0.1,3.5,0.1
			c0.9,0,1.7-0.1,2.6-0.2c0.4,0,0.7-0.3,1-0.6c0.7-1,1.5-2.1,2.3-3.1c1.6-2.1,3.1-4.2,4.7-6.3c1.6-2.1,3.1-4.2,4.7-6.4
			c1.6-2.1,3.1-4.3,4.7-6.4c0.4-0.5,0.8-1.1,1.2-1.6C161.9,12.9,161.8,12.8,161.6,12.6z"/>
		<path class="st1" d="M120.3,37.1c0.5-0.9,0.9-1.9,1.1-3c0.3-1.3,0.4-2.7,0.2-4.1c-0.2-1.9-1-3.7-2.1-5.3c-0.8-1.1-1.7-2.2-2.7-3.1
			c-1.1-1-2.2-1.9-3.4-2.7c-1.8-1.2-3.6-2.1-5.7-2.8c-1.8-0.6-3.6-0.9-5.5-0.7c-2.4,0.3-4.1,1.7-4.8,4c-0.5,1.6-0.4,3.2-0.2,4.8
			c0.4,2.8,1.5,5.4,2.9,7.9c0.7,1.2,1.4,2.3,2.3,3.3c0.1,0.1,0.2,0.2,0.2,0.3c0.4,0.4,0.8,0.9,1.2,1.3c0.5,0.4,0.9,0.8,1.4,1.2
			c1.8,1.4,3.8,2.3,6.1,2.5c2,0.2,3.9-0.2,5.7-0.9c0.1-0.1,0.2-0.2,0.4-0.3c1.2,0.9,2.8,2.3,3.6,3.8c0,0,2.2-0.7,3.3-0.7
			C124.5,42.8,122.4,39.4,120.3,37.1z M101.4,21.5c0,0-1.1,9.3,9.4,14.5C110.8,36,99.6,33,101.4,21.5z"/>
		<path class="st2" d="M153.5,86.7c5.6,0,11.2,0,16.7,0c-0.7-5.6-2.1-11.1-4.7-16.1c-5.9-12.1-17.4-21.1-30.4-24.2
			c-2.7,2.9-5.8,5.5-9.3,7.5c11.1,0.4,21.8,6.1,28.4,15c-3.4,0-6.9,0-10.3,0c-5.2-4.6-12-7.4-19.4-7.4c-16.1,0-29.2,13.1-29.2,29.2
			c0,16.1,13.1,29.2,29.2,29.2c16.1,0,29.2-13.1,29.2-29.2c0-1.4-0.1-2.7-0.3-4C153.5,86.7,153.5,86.7,153.5,86.7z M114.8,104.8
			c-2.3,0-4.2-1.9-4.2-4.2c0-2.3,1.9-4.2,4.2-4.2c2.4,0,4.2,1.8,4.2,4.2C119,103,117.2,104.8,114.8,104.8z M136.8,104.8
			c-2.3,0-4.2-1.8-4.2-4.2c0-2.3,1.9-4.3,4.2-4.2c2.3,0,4.2,1.8,4.2,4.2C141,102.9,139.2,104.8,136.8,104.8z M148.4,100
			c-0.2,0.3-0.5,0.5-0.9,0.5c-1.6,0-3.3,0-4.9,0c-0.2,0-0.3-0.1-0.3-0.3c0-0.4-0.1-0.7-0.2-1.1c-0.6-2.6-3.4-4.4-6-4
			c-2.3,0.3-3.9,1.7-4.6,3.9c-0.2,0.5-0.2,0.9-0.3,1.5c-0.1,0-0.3,0-0.4,0c-3.3,0-6.6,0-9.9,0c-0.5,0-0.5,0-0.5-0.5
			c-0.2-2-1.3-3.5-3.1-4.4c-1.8-0.9-3.7-0.8-5.4,0.3c-1.4,0.9-2.2,2.2-2.5,3.9c0,0.2-0.1,0.4-0.1,0.6c-0.8,0-1.7,0-2.5,0
			c-1,0-1.8-0.5-2.4-1.3c-0.3-0.4-0.4-0.9-0.6-1.3c0-6.6,0-13.1,0-19.7c0-0.1,0.1-0.2,0.1-0.3c0.4-1.5,1.5-2.3,3.1-2.3
			c8.5,0,17,0,25.5,0c0.9,0,1.8,0.2,2.6,0.7c1.6,1,2.6,2.4,3.4,4c0.9,1.8,1.6,3.7,2.5,5.5c0.3,0.7,0.9,1.2,1.6,1.3
			c0.9,0.1,1.8,0.2,2.7,0.2c1.1,0.1,1.5,0.6,1.5,1.6c0,1.9,0,3.8,0,5.7c0,0.1,0,0.3,0,0.4c0.6,0,1.1-0.1,1.4,0.5
			C148.4,97,148.4,98.5,148.4,100z"/>
		<g>
			<g>
				<path class="st2" d="M136.8,98.5c-1.1,0-2.1,1-2.1,2.1c0,1.1,0.9,2.1,2.1,2.1c1.2,0,2.1-0.9,2.1-2.1
					C138.9,99.5,138,98.5,136.8,98.5z"/>
				<path class="st2" d="M114.8,98.5c-1.1,0-2.1,1-2.1,2.1c0,1.1,1,2.1,2.1,2.1c1.2,0,2.1-0.9,2.1-2.1
					C116.9,99.5,116,98.5,114.8,98.5z"/>
				<path class="st2" d="M134.4,80.1c-0.3-0.7-0.8-1-1.5-1c-1.2,0-2.3,0-3.5,0c-0.7,0-0.9,0.2-0.9,1c0,1.8,0,3.7,0,5.5
					c0,0.8,0.2,1,1,1c1.2,0,2.3,0,3.5,0c0,0,0,0,0,0c1.2,0,2.4,0,3.6,0c0.7,0,1-0.5,0.7-1.1C136.2,83.7,135.3,81.9,134.4,80.1z"/>
				<path class="st2" d="M123.7,78.4h-15.5c-0.5,0-0.9,0.4-0.9,0.9v9.7c0,0.5,0.4,0.9,0.9,0.9h15.5c0.5,0,0.9-0.4,0.9-0.9v-9.7
					C124.5,78.8,124.1,78.4,123.7,78.4z"/>
			</g>
		</g>
		<g>
			<g>
				<polygon class="st1" points="6.8,165.3 8.8,165.3 8.8,155.4 21.5,155.4 21.5,153.5 8.8,153.5 8.8,145.8 23,145.8 23,143.9 
					6.8,143.9 				"/>
				<path class="st1" d="M47.5,146.7c-1-1-2.2-1.8-3.5-2.4c-1.3-0.6-2.8-0.9-4.3-0.9c-1.5,0-3,0.3-4.3,0.9c-1.3,0.6-2.5,1.4-3.5,2.4
					c-1,1-1.8,2.2-2.4,3.5c-0.6,1.3-0.9,2.8-0.9,4.3c0,1.5,0.3,3,0.9,4.3c0.6,1.3,1.4,2.5,2.4,3.5c1,1,2.2,1.8,3.5,2.4
					c1.3,0.6,2.8,0.9,4.3,0.9c1.5,0,3-0.3,4.3-0.9c1.3-0.6,2.5-1.4,3.5-2.4c1-1,1.8-2.2,2.4-3.5c0.6-1.3,0.9-2.8,0.9-4.3
					c0-1.5-0.3-2.9-0.9-4.3C49.3,148.9,48.5,147.7,47.5,146.7z M39.7,163.7c-1.2,0-2.4-0.2-3.5-0.7c-1.1-0.5-2.1-1.2-2.9-2
					c-0.8-0.8-1.5-1.8-1.9-2.9c-0.5-1.1-0.7-2.3-0.7-3.5c0-1.2,0.2-2.4,0.7-3.5c0.5-1.1,1.1-2.1,1.9-2.9c0.8-0.8,1.8-1.5,2.9-2
					c1.1-0.5,2.3-0.7,3.5-0.7c1.2,0,2.4,0.2,3.5,0.7c1.1,0.5,2.1,1.2,2.9,2c0.8,0.8,1.5,1.8,1.9,2.9c0.5,1.1,0.7,2.3,0.7,3.5
					c0,1.2-0.2,2.4-0.7,3.5c-0.5,1.1-1.1,2.1-1.9,2.9c-0.8,0.8-1.8,1.5-2.9,2C42.1,163.5,40.9,163.7,39.7,163.7z"/>
				<path class="st1" d="M76.5,146.7c-1-1-2.2-1.8-3.5-2.4c-1.3-0.6-2.8-0.9-4.3-0.9c-1.5,0-3,0.3-4.3,0.9c-1.3,0.6-2.5,1.4-3.5,2.4
					c-1,1-1.8,2.2-2.4,3.5c-0.6,1.3-0.9,2.8-0.9,4.3c0,1.5,0.3,3,0.9,4.3c0.6,1.3,1.4,2.5,2.4,3.5c1,1,2.2,1.8,3.5,2.4
					c1.3,0.6,2.8,0.9,4.3,0.9c1.5,0,3-0.3,4.3-0.9c1.3-0.6,2.5-1.4,3.5-2.4c1-1,1.8-2.2,2.4-3.5c0.6-1.3,0.9-2.8,0.9-4.3
					c0-1.5-0.3-2.9-0.9-4.3C78.3,148.9,77.5,147.7,76.5,146.7z M68.7,163.7c-1.2,0-2.4-0.2-3.5-0.7c-1.1-0.5-2.1-1.2-2.9-2
					c-0.8-0.8-1.5-1.8-1.9-2.9c-0.5-1.1-0.7-2.3-0.7-3.5c0-1.2,0.2-2.4,0.7-3.5c0.5-1.1,1.1-2.1,1.9-2.9c0.8-0.8,1.8-1.5,2.9-2
					c1.1-0.5,2.3-0.7,3.5-0.7c1.2,0,2.4,0.2,3.5,0.7c1.1,0.5,2.1,1.2,2.9,2c0.8,0.8,1.5,1.8,1.9,2.9c0.5,1.1,0.7,2.3,0.7,3.5
					c0,1.2-0.2,2.4-0.7,3.5c-0.5,1.1-1.1,2.1-1.9,2.9c-0.8,0.8-1.8,1.5-2.9,2C71.1,163.5,69.9,163.7,68.7,163.7z"/>
				<path class="st1" d="M102.5,147c-1-1-2.1-1.7-3.4-2.3c-1.3-0.6-2.7-0.8-4.2-0.8H87v21.4h7.8c1.5,0,2.9-0.3,4.2-0.8
					c1.3-0.6,2.5-1.3,3.4-2.3c1-1,1.8-2.1,2.3-3.4c0.6-1.3,0.9-2.7,0.9-4.2c0-1.5-0.3-2.9-0.9-4.2C104.3,149.1,103.5,148,102.5,147z
					 M95,163.3H89v-17.5H95c1.2,0,2.3,0.2,3.4,0.7c1.1,0.5,2,1.1,2.8,1.9c0.8,0.8,1.4,1.7,1.9,2.8c0.5,1.1,0.7,2.2,0.7,3.3
					c0,1.2-0.2,2.3-0.7,3.4c-0.4,1.1-1.1,2-1.9,2.8c-0.8,0.8-1.7,1.4-2.8,1.9C97.3,163.1,96.2,163.3,95,163.3z"/>
				<polygon class="st1" points="125.4,145.8 133.5,145.8 133.5,165.3 135.4,165.3 135.4,145.8 143.5,145.8 143.5,143.9 
					125.4,143.9 				"/>
				<path class="st1" d="M163.4,155.5c0.7-0.4,1.3-1,1.8-1.5c0.5-0.6,0.9-1.2,1.1-1.8c0.3-0.7,0.4-1.3,0.4-1.9
					c0-0.9-0.2-1.7-0.6-2.5c-0.4-0.8-0.8-1.4-1.4-2c-0.6-0.6-1.3-1-2.1-1.4c-0.8-0.3-1.6-0.5-2.5-0.5h-10.5v21.4h2v-8.7h7.8l5.9,8.7
					h2.5l-6.1-9C162.3,156,162.9,155.8,163.4,155.5z M151.6,145.8h8.5c0.6,0,1.2,0.1,1.7,0.4c0.6,0.2,1.1,0.6,1.5,1
					c0.4,0.4,0.8,0.9,1,1.4c0.2,0.5,0.4,1.1,0.4,1.7c0,0.6-0.1,1.2-0.4,1.7c-0.3,0.5-0.6,1-1.1,1.4c-0.5,0.4-1,0.7-1.6,1
					c-0.6,0.2-1.3,0.4-2,0.4h-8V145.8z"/>
				<path class="st1" d="M190.1,156.6c0,1-0.2,1.9-0.6,2.8c-0.4,0.9-0.9,1.6-1.6,2.3c-0.7,0.6-1.4,1.2-2.3,1.5
					c-0.9,0.4-1.8,0.6-2.8,0.6c-1,0-2-0.2-2.8-0.6c-0.9-0.4-1.7-0.9-2.3-1.6c-0.7-0.6-1.2-1.4-1.6-2.3c-0.4-0.9-0.6-1.8-0.6-2.8
					v-12.7h-2v12.6c0,1.3,0.2,2.5,0.7,3.6c0.5,1.1,1.1,2.1,2,2.9c0.8,0.8,1.8,1.5,2.9,2c1.1,0.5,2.3,0.7,3.6,0.7
					c1.3,0,2.5-0.2,3.6-0.7c1.1-0.5,2.1-1.2,2.9-2c0.8-0.8,1.5-1.8,2-2.9c0.5-1.1,0.7-2.3,0.7-3.6v-12.5h-2V156.6z"/>
				<path class="st1" d="M216.7,161.2c-0.8,0.8-1.7,1.4-2.8,1.9c-1.1,0.4-2.2,0.7-3.3,0.7c-1.3,0-2.5-0.2-3.6-0.7
					c-1.1-0.5-2.1-1.2-2.9-2c-0.8-0.8-1.5-1.8-2-2.9c-0.5-1.1-0.7-2.3-0.7-3.5c0-1.2,0.2-2.4,0.7-3.5c0.5-1.1,1.1-2.1,2-2.9
					c0.8-0.8,1.8-1.5,2.9-2c1.1-0.5,2.3-0.7,3.6-0.7c1.2,0,2.3,0.2,3.3,0.7c1.1,0.5,2,1.1,2.8,1.8l0.4,0.4l1.4-1.4l-0.5-0.4
					c-1-1-2.1-1.7-3.4-2.2c-1.2-0.5-2.6-0.8-4.1-0.8c-1.5,0-3,0.3-4.4,0.9c-1.4,0.6-2.5,1.4-3.6,2.4c-1,1-1.8,2.2-2.4,3.5
					c-0.6,1.3-0.9,2.8-0.9,4.3c0,1.5,0.3,3,0.9,4.3c0.6,1.3,1.4,2.5,2.4,3.5c1,1,2.2,1.8,3.6,2.4c1.4,0.6,2.8,0.9,4.4,0.9
					c1.4,0,2.8-0.3,4.1-0.8c1.3-0.5,2.5-1.3,3.5-2.2l0.5-0.4l-1.5-1.4L216.7,161.2z"/>
				<polygon class="st1" points="241.1,143.9 238.4,143.9 227.2,154.9 227.2,143.9 225.2,143.9 225.2,165.3 227.2,165.3 
					227.2,157.5 229.4,155.3 239.5,165.3 242.2,165.3 230.7,154 				"/>
			</g>
		</g>
		<g>
			<g>
				<g>
					<polygon class="st2" points="100.5,173.7 100.5,173.7 99.9,173.7 93.4,182.4 87,173.7 86.4,173.7 86.3,173.6 86.3,173.7 
						85.8,173.7 85.8,188.5 87.2,188.5 87.2,176.2 93.4,184.6 99.7,176.2 99.7,188.5 101.1,188.5 101.1,173.7 100.5,173.7 					"/>
					<path class="st2" d="M111.8,173.7l-6.7,14.7h1.5l1.9-4.2h7.7l1.9,4.2h1.5l-6.7-14.7H111.8z M109.2,182.9l3.2-7l3.2,7H109.2z"/>
					<polygon class="st2" points="134.8,186 124.9,173.7 124.3,173.7 124.2,173.7 124.2,173.7 123.7,173.7 123.7,188.5 125.1,188.5 
						125.1,176.1 135,188.5 136.2,188.5 136.2,173.7 134.8,173.7 					"/>
					<polygon class="st2" points="142.7,172.4 144.3,172.4 147.3,168.7 145.6,168.7 					"/>
					<polygon class="st2" points="141.6,175.1 142.4,175.1 142.4,187.1 141.6,187.1 141.6,188.5 144.6,188.5 144.6,187.1 
						143.8,187.1 143.8,175.1 144.6,175.1 144.6,173.7 141.6,173.7 					"/>
					<path class="st2" d="M156.4,173.7h-1.1l-6.7,14.7h1.5l1.9-4.2h7.7l1.9,4.2h1.5L156.4,173.7z M152.7,182.9l3.2-7l3.2,7H152.7z"
						/>
				</g>
				<rect x="9.9" y="178" class="st2" width="70.6" height="1.2"/>
				<rect x="168.6" y="178" class="st2" width="70.6" height="1.2"/>
			</g>
		</g>
	</g>
</g>
</svg>
